<?xml version="1.0" encoding="utf-8"?>
<!-- Generator: Adobe Illustrator 27.3.0, SVG Export Plug-In . SVG Version: 6.00 Build 0)  -->
<svg version="1.1" id="Layer_1" xmlns="http://www.w3.org/2000/svg" xmlns:xlink="http://www.w3.org/1999/xlink" x="0px" y="0px"
	 viewBox="0 0 12 12" style="enable-background:new 0 0 12 12;" xml:space="preserve">
<style type="text/css">
	.st0{fill:#FFFFFF;}
</style>
<path class="st0" d="M4.8,5.6c0,0,1.1-0.1,1.1-1.5C6,2.7,5,2,3.9,2H0v7.8h3.9c0,0,2.4,0.1,2.4-2.3C6.2,7.5,6.3,5.6,4.8,5.6z
	 M1.7,3.4h2.2c0,0,0.5,0,0.5,0.8c0,0.8-0.3,0.9-0.7,0.9h-2V3.4z M3.8,8.4H1.7V6.3h2.2c0,0,0.8,0,0.8,1.1C4.7,8.3,4.1,8.4,3.8,8.4z
	 M9.4,4C6.5,4,6.5,7,6.5,7s-0.2,3,2.9,3c0,0,2.5,0.2,2.5-2.1h-1.3c0,0,0,0.8-1.2,0.8c0,0-1.3,0.1-1.3-1.4H12C12,7.4,12.4,4,9.4,4z
	 M10.6,6.3H8.1c0,0,0.2-1.2,1.3-1.2S10.6,6.3,10.6,6.3z M10.9,2.5H7.8v1h3.1C10.9,3.5,10.9,2.5,10.9,2.5z"/>
</svg>
