<?xml version="1.0" encoding="utf-8"?>
<!-- Generator: Adobe Illustrator 27.3.0, SVG Export Plug-In . SVG Version: 6.00 Build 0)  -->
<svg version="1.1" id="Layer_1" xmlns="http://www.w3.org/2000/svg" xmlns:xlink="http://www.w3.org/1999/xlink" x="0px" y="0px"
	 viewBox="0 0 12 12" style="enable-background:new 0 0 12 12;" xml:space="preserve">
<style type="text/css">
	.st0{fill:#FFFFFF;}
</style>
<path class="st0" d="M6,6L6,6C5.3,6,4.6,5.8,4.3,6.1C4.1,6.3,4,6.6,4,6.8C4,8,4.8,8.1,6,8.1h0c1.1,0,2-0.1,2-1.2
	c0-0.3-0.1-0.5-0.3-0.7C7.4,5.8,6.7,6,6,6z M5,7.5c-0.2,0-0.4-0.2-0.4-0.5S4.8,6.4,5,6.4s0.4,0.2,0.4,0.5C5.4,7.2,5.3,7.5,5,7.5z
	 M7,7.5c-0.2,0-0.4-0.2-0.4-0.5S6.7,6.4,7,6.4c0.2,0,0.4,0.2,0.4,0.5C7.4,7.2,7.2,7.5,7,7.5z M6,0.2C2.8,0.2,0.2,2.8,0.2,6
	s2.6,5.8,5.8,5.8s5.8-2.6,5.8-5.8S9.2,0.2,6,0.2z M6.5,8.4c-0.1,0-0.3,0-0.5,0c-0.2,0-0.4,0-0.5,0c-0.5,0-2.3,0-2.3-2.2
	c0-0.5,0.2-0.9,0.5-1.2c0-0.1,0-0.7,0.2-1.3c0,0,0.5,0.1,1.4,0.6c0.2,0,0.5-0.1,0.8-0.1c0.3,0,0.6,0,0.8,0.1
	c0.8-0.6,1.4-0.6,1.4-0.6C8.4,4.2,8.4,4.9,8.3,5c0.3,0.3,0.5,0.7,0.5,1.2C8.8,8.3,7,8.4,6.5,8.4z"/>
</svg>
