<?xml version="1.0" encoding="utf-8"?>
<!-- Generator: Adobe Illustrator 27.3.0, SVG Export Plug-In . SVG Version: 6.00 Build 0)  -->
<svg version="1.1" id="Layer_1" xmlns="http://www.w3.org/2000/svg" xmlns:xlink="http://www.w3.org/1999/xlink" x="0px" y="0px"
	 viewBox="0 0 12 12" style="enable-background:new 0 0 12 12;" xml:space="preserve">
<style type="text/css">
	.st0{fill:#FFFFFF;}
</style>
<path class="st0" d="M7.8,6C7.8,7,7,7.8,6,7.8S4.2,7,4.2,6c0-0.1,0-0.2,0-0.3H3.6v2.4c0,0.2,0.1,0.3,0.3,0.3h4.2
	c0.2,0,0.3-0.1,0.3-0.3V5.7H7.8C7.8,5.8,7.8,5.9,7.8,6z M6,7.2c0.7,0,1.2-0.5,1.2-1.2c0-0.7-0.5-1.2-1.2-1.2C5.3,4.8,4.8,5.3,4.8,6
	C4.8,6.7,5.3,7.2,6,7.2z M7.4,4.7h0.7c0.1,0,0.2-0.1,0.2-0.2V3.8c0-0.1-0.1-0.2-0.2-0.2H7.4c-0.1,0-0.2,0.1-0.2,0.2v0.7
	C7.3,4.7,7.3,4.7,7.4,4.7z M6,0.2C2.8,0.2,0.2,2.8,0.2,6c0,3.2,2.6,5.8,5.8,5.8s5.8-2.6,5.8-5.8l0,0C11.8,2.8,9.2,0.2,6,0.2z M9,8.3
	C9,8.7,8.7,9,8.3,9H3.7C3.3,9,3,8.7,3,8.3V3.7C3,3.3,3.3,3,3.7,3h4.7C8.7,3,9,3.3,9,3.7V8.3z"/>
</svg>
