<?xml version="1.0" encoding="utf-8"?>
<!-- Generator: Adobe Illustrator 27.3.0, SVG Export Plug-In . SVG Version: 6.00 Build 0)  -->
<svg version="1.1" id="Layer_1" xmlns="http://www.w3.org/2000/svg" xmlns:xlink="http://www.w3.org/1999/xlink" x="0px" y="0px"
	 viewBox="0 0 12 12" style="enable-background:new 0 0 12 12;" xml:space="preserve">
<style type="text/css">
	.st0{fill:#FFFFFF;}
</style>
<path class="st0" d="M6,0.2C2.8,0.2,0.2,2.8,0.2,6s2.6,5.8,5.8,5.8s5.8-2.6,5.8-5.8S9.2,0.2,6,0.2z M4.6,8.4H3.4V4.6h1.2V8.4z
	 M4,4.2c-0.4,0-0.6-0.3-0.6-0.6C3.4,3.3,3.6,3,4,3s0.6,0.3,0.6,0.6C4.6,3.9,4.4,4.2,4,4.2z M8.9,8.4H7.7V6.3c0-0.5-0.2-0.8-0.6-0.8
	c-0.3,0-0.5,0.2-0.6,0.4c0,0.1,0,0.2,0,0.3v2.2H5.3V5.8c0-0.5,0-0.9,0-1.2h1l0.1,0.5h0c0.2-0.2,0.5-0.6,1.2-0.6
	c0.8,0,1.3,0.5,1.3,1.6C8.9,6.2,8.9,8.4,8.9,8.4z"/>
</svg>
