<?xml version="1.0" encoding="utf-8"?>
<!-- Generator: Adobe Illustrator 27.3.0, SVG Export Plug-In . SVG Version: 6.00 Build 0)  -->
<svg version="1.1" id="Layer_1" xmlns="http://www.w3.org/2000/svg" xmlns:xlink="http://www.w3.org/1999/xlink" x="0px" y="0px"
	 viewBox="0 0 12 12" style="enable-background:new 0 0 12 12;" xml:space="preserve">
<style type="text/css">
	.st0{fill:#FFFFFF;}
</style>
<path class="st0" d="M6,0.2C2.8,0.2,0.2,2.8,0.2,6s2.6,5.8,5.8,5.8s5.8-2.6,5.8-5.8S9.2,0.2,6,0.2z M6.4,7.4C6,7.3,5.9,7.2,5.6,7
	C5.4,7.8,5.2,8.6,4.7,9C4.5,7.8,4.9,6.8,5.1,5.8c-0.3-0.6,0-1.8,0.8-1.5c0.9,0.4-0.8,2.2,0.3,2.4C7.4,7,7.9,4.7,7.2,4
	c-1.1-1.1-3.1,0-2.8,1.5c0.1,0.4,0.4,0.5,0.2,1C3.8,6.3,3.6,5.8,3.6,5.1c0-1.2,1-2,2.1-2.1C7,2.8,8.2,3.5,8.3,4.7
	C8.5,6,7.8,7.5,6.4,7.4z"/>
</svg>
