<svg id="Layer_1" data-name="Layer 1" xmlns="http://www.w3.org/2000/svg" viewBox="0 0 493.97 152.5"><defs><style>.cls-1{fill:#fe6361;}.cls-2{fill:#1d3461;}</style></defs><path class="cls-1" d="M355.62,98.12,360,77.72h5.17c8.62,0,11.32,4.61,10.1,10.33s-5.59,10.07-14.18,10.07Zm2.56-1.77h3.16c7.05,0,10.73-3.69,11.75-8.46s-1-8.46-8-8.46h-3.29Z"/><path class="cls-1" d="M376.45,92.86c0-5.37,3.72-8.79,8.19-8.79,3.72,0,5.34,2.21,5.34,5a10.89,10.89,0,0,1-.4,2.57H378.49a6,6,0,0,0-.13,1.28c0,2.44,1.68,3.76,4.44,3.76a8.36,8.36,0,0,0,4.74-1.45l.76,1.51a10.59,10.59,0,0,1-5.73,1.68C378.49,98.42,376.45,96.28,376.45,92.86ZM388.1,90a5.88,5.88,0,0,0,.07-1c0-2.14-1.42-3.23-3.56-3.23A6.07,6.07,0,0,0,378.82,90Z"/><path class="cls-1" d="M390.6,96.31l1.32-1.41a8,8,0,0,0,4.93,1.78c1.85,0,3.56-.63,3.56-2.31,0-3.12-7.21-2.17-7.21-6.38,0-2.77,2.83-3.92,5.3-3.92a11.41,11.41,0,0,1,5.07,1.32L402.88,87a10.16,10.16,0,0,0-4.38-1.22c-1.19,0-3.36.3-3.36,2.14,0,2.76,7.21,2,7.21,6.32,0,3-2.9,4.21-5.5,4.21A11,11,0,0,1,390.6,96.31Z"/><path class="cls-1" d="M404,98.12l2.93-13.75h1.94l-2.92,13.75Zm3.53-17.93a1.36,1.36,0,0,1,1.41-1.06c.72,0,1.22.43,1.05,1.19a1.36,1.36,0,0,1-1.41,1.09A1,1,0,0,1,407.49,80.19Z"/><path class="cls-1" d="M408.64,100.92,410,99.54a8.3,8.3,0,0,0,4.87,1.88c2.93,0,5.07-1.35,6.09-7.64a6.7,6.7,0,0,1-6,3.55,4.56,4.56,0,0,1-4.84-4.9,8.11,8.11,0,0,1,8.29-8.33,9.14,9.14,0,0,1,6,2.21l-2,9.48c-1.28,6.09-4.18,7.4-7.73,7.4A10.37,10.37,0,0,1,408.64,100.92Zm13.19-11.65.5-2.17a6.4,6.4,0,0,0-10.24,5.17c0,2,1.12,3.35,3.49,3.35C417.36,95.62,420.88,93.85,421.83,89.27Z"/><path class="cls-1" d="M425.29,98.12l2.93-13.75h1.94l-.69,3.22a8.12,8.12,0,0,1,6.12-3.49c4.05,0,4.81,3.07,4,6.59L438,98.12h-2l1.58-7.4c.53-2.34.36-4.94-2.8-4.94-1.74,0-5.33,1.68-6.42,6.82-.46,2.14-.72,3.39-1.15,5.52Z"/><path class="cls-1" d="M355.91,124c.69-3.75,4-5.82,7.93-6.38L360.72,111l.33-.53h11.48l0,1.58h-9.31c2,4,5,10.5,7,14.55a8.54,8.54,0,0,0,2.67-6.62h1.81a11.09,11.09,0,0,1-3.69,8.23l1.22,2.5-2,.3-.82-1.75a12,12,0,0,1-6.75,1.85C358.08,131.13,355.09,128.23,355.91,124Zm12.87,3.92c-1.42-3-2.86-5.89-4.31-8.89-2.86.37-5.86,1.82-6.52,5.07s1.65,5.47,5.2,5.47A9.87,9.87,0,0,0,368.78,127.9Z"/><path class="cls-1" d="M382.31,130.9l4.34-20.41h2.17l-3.95,18.63H394l-.79,1.78Z"/><path class="cls-1" d="M395.34,125.63c0-5.36,3.72-8.79,8.2-8.79,3.71,0,5.33,2.21,5.33,5a10.89,10.89,0,0,1-.4,2.56H397.38a6,6,0,0,0-.13,1.29c0,2.43,1.68,3.75,4.44,3.75a8.36,8.36,0,0,0,4.74-1.45l.76,1.51a10.59,10.59,0,0,1-5.73,1.68C397.38,131.19,395.34,129.05,395.34,125.63ZM407,122.8a5.82,5.82,0,0,0,.07-1c0-2.14-1.42-3.23-3.56-3.23a6.07,6.07,0,0,0-5.79,4.28Z"/><path class="cls-1" d="M411.47,127.57a9.61,9.61,0,0,1,.23-2.07l1.45-6.65h-2.8l.82-1.71h2.31c.19-1,.49-2.17.69-3.13l2-.43-.76,3.56h4.21l-.39,1.71h-4.21l-1.42,6.78a9,9,0,0,0-.23,1.78c0,1.12.56,1.91,2.14,1.91.59,0,1.81-.17,1.81-.17L416.8,131s-.95.1-1.81.1A3.17,3.17,0,0,1,411.47,127.57Z"/><path class="cls-1" d="M421.21,127.57a10.29,10.29,0,0,1,.23-2.07l1.45-6.65h-2.8l.82-1.71h2.31c.19-1,.49-2.17.69-3.13l2-.43-.76,3.56h4.21l-.39,1.71H424.8l-1.42,6.78a9,9,0,0,0-.23,1.78c0,1.12.56,1.91,2.14,1.91.59,0,1.81-.17,1.81-.17l-.56,1.84s-1,.1-1.81.1A3.17,3.17,0,0,1,421.21,127.57Z"/><path class="cls-1" d="M428.62,125.63c0-5.36,3.72-8.79,8.19-8.79,3.72,0,5.33,2.21,5.33,5a10.85,10.85,0,0,1-.39,2.56H430.66a6,6,0,0,0-.13,1.29c0,2.43,1.67,3.75,4.44,3.75a8.38,8.38,0,0,0,4.74-1.45l.75,1.51a10.56,10.56,0,0,1-5.72,1.68C430.66,131.19,428.62,129.05,428.62,125.63Zm11.65-2.83a6.78,6.78,0,0,0,.06-1c0-2.14-1.41-3.23-3.55-3.23A6.06,6.06,0,0,0,431,122.8Z"/><path class="cls-1" d="M442.93,130.9l2.93-13.76h1.91l-.72,3.32a6.71,6.71,0,0,1,6.78-3.52l-.66,2c-3.82-.53-6.32,2.53-7.21,6.68l-1.12,5.27Z"/><path class="cls-1" d="M452.84,130.9l2.93-13.76h1.94l-2.93,13.76ZM456.36,113a1.37,1.37,0,0,1,1.42-1c.72,0,1.21.42,1.05,1.18a1.36,1.36,0,0,1-1.42,1.09A1,1,0,0,1,456.36,113Z"/><path class="cls-1" d="M458.2,130.9l2.93-13.76h1.94l-.69,3.22a8.11,8.11,0,0,1,6.13-3.48c4,0,4.8,3.06,4,6.58l-1.58,7.44h-2l1.58-7.41c.53-2.34.36-4.94-2.79-4.94-1.75,0-5.34,1.68-6.42,6.82-.46,2.14-.73,3.39-1.15,5.53Z"/><path class="cls-1" d="M473.41,133.69l1.35-1.38a8.3,8.3,0,0,0,4.87,1.88c2.93,0,5.07-1.35,6.09-7.64a6.71,6.71,0,0,1-6,3.56,4.56,4.56,0,0,1-4.84-4.91,8.1,8.1,0,0,1,8.3-8.32,9.16,9.16,0,0,1,6,2.2l-2,9.48c-1.28,6.09-4.18,7.4-7.73,7.4A10.37,10.37,0,0,1,473.41,133.69ZM486.61,122l.49-2.17A6.39,6.39,0,0,0,476.87,125c0,2,1.11,3.35,3.48,3.35C482.13,128.39,485.65,126.62,486.61,122Z"/><path class="cls-2" d="M234.81,71.37c-18.38,0-29.1,14.59-29.1,30.39,0,17.74,13.3,30.88,30.88,30.88,18.45,0,29-14.6,29-30.4C265.6,84.59,252.46,71.37,234.81,71.37Zm12.81,56.75c-11.12,0-29.34-28.05-29.34-45.38,0-4.52,2.18-6.86,5.4-6.86,11.53,0,29.43,28.06,29.43,45.39C253.11,126,251.17,128.12,247.62,128.12Z"/><path class="cls-2" d="M44,73s-11.42.1-15.22.1c-3.31,0-13.23-.1-13.23-.1v.1c2.94,1.79,7.17,4.34,7.17,9v40.69A7.32,7.32,0,0,1,20.9,128a5.78,5.78,0,0,1-4.2,1.69h-.4V131h.53s10.33-.25,13.77-.25c3.09,0,12.38.25,12.38.25,21.28,0,34.59-10.65,34.59-29.75C77.57,82.9,65.24,73,44,73Zm-2.25,56.75H40.49V74.27h2C53.06,74.27,59,83.71,59,101.36,59,119.26,52.18,129.73,41.78,129.73Z"/><path class="cls-2" d="M267.94,73v.1c2.94,1.82,7.2,5.44,7.18,9.49v40.34c-.15,4.53-2.6,6.65-5.52,6.83h-.93V131h.55s11.07-.22,14.77-.22,14.76.22,14.76.22h.55v-1.28h-.94c-2.9-.18-5.33-2.28-5.51-6.75V82.54c0-4,4.25-7.64,7.18-9.46V73l-16,.1Z"/><path class="cls-2" d="M118.81,73v.1c3.08,1.38,9.55,4.28,9.82,8.87l1.16,26c.72,15.64-3.71,22.17-12.82,22.17-8.46,0-13.06-5.32-13.06-21.85v-26c0-4.13,4.37-7.38,7.17-9.19V73s-12.62.1-16.82.1c-3.84,0-15.35-.1-15.35-.1v.1c2.94,1.81,7.26,5,7.26,9v25.1c0,17.25,7.25,25.48,26.2,25.48,14.43,0,20-5.24,20.71-22.09L134.34,82c.15-3.39,3.85-7.34,7.38-8.87V73s-7.75.1-10.34.1C128.24,73.08,118.81,73,118.81,73Z"/><path class="cls-2" d="M336.89,97.17,326.33,90.8c-6-3.55-8-6.69-8-10.24A7.4,7.4,0,0,1,326,73.14c3.22-.25,6.21,4.59,7.85,7.51l.64,1.15h0l6.09,10.93h.08l4.75-17.81a44.83,44.83,0,0,0-18.3-3.55c-13.14,0-20.55,7.9-20.55,18,0,8.14,4.43,13.62,11.93,17.73l9.19,5c4.67,2.5,6.77,5.81,6.77,9.67a8.79,8.79,0,0,1-7,8.59c-3.15.67-8.76-3.47-13-11.55h0l-5.31-10h-.08l-4.76,20.63a64.91,64.91,0,0,0,20.4,3.23c13.46,0,22.81-8.06,22.81-19.19C347.53,106.11,343.66,101.2,336.89,97.17Z"/><path class="cls-2" d="M228.27,62.8C235.5,62.8,240.7,60,244,55l-.07-.08a10.3,10.3,0,0,1-2.26.24c-5.2,0-10.79-2.91-15.22-7.3,9.32-3.53,14.29-9.26,14.29-15.77,0-5.73-5-10-12.35-10-12.43,0-20,9.49-20,21C208.31,55.11,217.32,62.8,228.27,62.8Zm-7.14-38.06c3.34,0,7.84,5.81,7.84,12.63,0,4-.85,7.14-3,10-4.66-4.86-8-11.45-8-18C217.94,26.47,219.11,24.74,221.13,24.74Z"/><path class="cls-2" d="M386.64,55l-.08-.08a10.28,10.28,0,0,1-2.25.24c-5.21,0-10.8-2.91-15.23-7.3,9.32-3.53,14.29-9.26,14.29-15.77,0-5.73-5-10-12.35-10-12.43,0-20,9.49-20,21,0,12.17,9,19.86,20,19.86C378.17,62.8,383.37,60,386.64,55Zm-26-25.58c0-2.9,1.17-4.63,3.19-4.63,3.34,0,7.85,5.81,7.85,12.63,0,4-.86,7.14-3,10C364,42.47,360.61,35.88,360.61,29.37Z"/><path class="cls-2" d="M24.59,16.76l-.39,3c-.16,1.2-.33,2.41-.49,3.62-.18,1.37-.37,2.73-.55,4.1s-.39,2.92-.59,4.38-.39,3-.59,4.45-.39,2.89-.59,4.34l-.06.5-.48,3.53c-.15,1.17-.31,2.35-.47,3.52C20.25,49.1,20.13,50,20,51c-.08.64-.17,1.28-.26,1.92,0,.27-.07.55-.1.82v0c-.71,5.28-2.8,7-5.92,7V62s6.43-.13,8.56-.13S32.6,62,32.6,62V60.75H30.8c-3.63,0-6-2.13-5.95-5.86.12-5.23.61-15.63,1.07-24.82.31-5.92.6-11.34.78-14.54A46.08,46.08,0,0,0,27.8,22c.18.8.39,1.62.62,2.44A117.28,117.28,0,0,0,35.5,42.81,199.76,199.76,0,0,0,46.19,62.4h4.27L66.85,12.65l5.21,40.79c.68,5.36-2.74,7.31-5.87,7.31h-1V62S78,61.87,82,61.87c3.36,0,14.1.14,14.1.14V60.75h-.65c-3.26,0-5.52-2.14-6.12-7,0,0-5-40.2-5-40.2-.54-3.12,2.08-5.26,4.65-6.9l1.86-1v-.1s-11.56.09-15.42.09c-2.71,0-10.83-.09-10.83-.09L55.36,38.45l-.54,1.94s-.22-.31-.61-.91A64.24,64.24,0,0,1,50.53,33a68.22,68.22,0,0,1-6.2-18.84,53.51,53.51,0,0,1-.72-8.62s-8.4.08-11.2.08l-8.35,0H22a17.13,17.13,0,0,0-2.94.4C12.19,7.44,4.76,12.87,4.76,21.6c0,4.26,2.74,6.94,6.33,6.94a8.68,8.68,0,0,0,5.32-2c1-.81,3.14-2.89,3-4.3a1.66,1.66,0,0,0-1.22-1.43c-1.68-.42-1.74,1.73-3.06,1.78s-1.45-2.88-1.37-3.87a11.53,11.53,0,0,1,1.39-4.49c1.3-2.46,3.72-5.27,6.76-5.27A2.57,2.57,0,0,1,23,9.16C25.78,10.48,24.91,14.38,24.59,16.76Z"/><path class="cls-2" d="M167.53,62V60.76h-2c-2.64,0-3.74-3.84-3.85-7.48h0V36c0-2.21,1.65-3.65,3.22-3.12,2.48,1.15,5.88,4,11.22,10h.08V22.15a4.36,4.36,0,0,0-1.47-.24c-3.58,0-8.63,3.69-13,9.58V21.68h-.14c-7.49,5.85-19.83,6.75-19.83,6.75v.22a9.76,9.76,0,0,1,4.43,7.4V53.5h0c0,3.66-.63,7.27-3.84,7.27h0V62h0s9.63-.13,12.84-.13S167.53,62,167.53,62Z"/><path class="cls-2" d="M393.74,36.05V53.5h0c0,3.66-.63,7.27-3.84,7.27h0V62h0s9.2-.14,12.27-.14c2.74,0,12.94.14,12.94.14V60.76h-2c-2.77,0-3.74-3.84-3.85-7.48h0V36c0-2.21,1.65-3.65,3.22-3.12,2.48,1.15,5.88,4,11.23,10h.08V22.15a4.46,4.46,0,0,0-1.48-.24c-3.58,0-8.63,3.69-13.05,9.58V21.68h-.13c-7.49,5.85-19.84,6.75-19.84,6.75v.22A9.76,9.76,0,0,1,393.74,36.05Z"/><path class="cls-2" d="M200.59,53.26v-32h-.12c-8.26,6.07-19.85,7.06-19.85,7.06v.11c2.26,1.47,4.45,3.72,4.43,7V53.28h0c-.12,3.64-.73,7.48-3.85,7.48h0V62h0s8.51-.13,11.35-.13,11.86.13,11.86.13h.06V60.76h-.06C201.37,60.76,200.59,56.88,200.59,53.26Z"/><path class="cls-2" d="M98.09,55c0,4.94,5.08,7.85,10.14,7.85,4.27,0,8.39-2.12,12-5.26V62s6.73-.13,9-.13c2.61,0,10.45.13,10.45.13V60.75c-3.13,0-3.89-3.58-3.89-7.26V39c0-11.38-5.2-17-15-17a22.73,22.73,0,0,0-16.34,6.67h0a15.67,15.67,0,0,0-2.4,2.46,3.14,3.14,0,0,0-.45.63l0,0a4,4,0,0,0-.29.63,3.81,3.81,0,0,0,2.33,4.86,3.88,3.88,0,0,0,3.42-.44,3.92,3.92,0,0,0,1.21-1.35,3.85,3.85,0,0,0,.36-2.1c0-.83,0-1.66,0-2.49a3.29,3.29,0,0,1,.5-1.72c.71-.95,2.66-.6,3.7-.41a8,8,0,0,1,2.93,1.14,9.54,9.54,0,0,1,3.73,5.52,22.12,22.12,0,0,1,.74,6.12C105.35,42.39,98.09,47.73,98.09,55Zm22.17-12.4V56.44a8.17,8.17,0,0,1-1.78.23c-3.11,0-4.66-2-4.66-5.64C113.82,46.87,115.61,43.89,120.26,42.55Z"/><circle class="cls-2" cx="193.21" cy="12.97" r="8.64" transform="translate(107.29 186.51) rotate(-67.5)"/><path class="cls-2" d="M344,53.26v-32h-.12C335.57,27.28,324,28.27,324,28.27v.11c2.26,1.47,4.44,3.72,4.43,7V53.28h0c-.11,3.64-.72,7.48-3.84,7.48h0V62h0s8.51-.13,11.35-.13,11.86.13,11.86.13h.06V60.76h-.06C344.74,60.76,344,56.88,344,53.26Z"/><circle class="cls-2" cx="336.58" cy="12.97" r="8.64" transform="translate(20.66 129.79) rotate(-22.5)"/><path class="cls-2" d="M321.79,22.38c0-9.73-8.78-16.87-27.88-16.87,0,0-9.28.09-12.37.09-3.25,0-13-.09-13-.09v.1c2.93,1.78,7.05,4.22,7.05,8.42V36.59s-5.32-2-7-2.48c-4.68-1.41-9.68-2.17-14.41-.59a15.42,15.42,0,0,0-6.87,4.41,11.4,11.4,0,0,0-2.72,7.43,8.44,8.44,0,0,0,8.6,8.75c5.28,0,8.91-4.83,8.91-7.62a.79.79,0,0,0-.83-.83c-.53,0-1.06.75-2.27.75-2,0-3.17-1.13-3.17-3.32,0-2.65,2.31-4.28,4.59-5.06,5.08-1.74,9.83.12,14.7,1.62l.43.13v14c0,5.13-3,7-6.11,7h-.1V62h.1s10.55-.13,14.08-.13c3.81,0,16.11.13,16.11.13V60.75h-.86c-3.11,0-6.1-2.54-6.13-6.92V40.64C311.3,40.48,321.79,34,321.79,22.38ZM292.66,29V6.76h.85c6.22,0,10.42,5.42,10.42,15.7,0,10.67-4.51,16.4-11.27,16.47Z"/><path class="cls-2" d="M180.86,99.91c12.65-2.26,17.81-6.77,17.81-13.63,0-8.94-9.43-13.29-25.31-13.29,0,0-11.05.09-14.73.09S144.26,73,144.26,73v.09c3.21,1.19,7.17,4.27,7.17,9v20c2.92-1.77,5.79-3.1,9.28-3.1a15.8,15.8,0,0,1,2.28.17,17.31,17.31,0,0,1,5,1.59h3.38a11.17,11.17,0,0,1,9.59,5.11c2.73,4.28,2.59,10.38,1.55,15.19a13,13,0,0,1-7.73,9.54,8.72,8.72,0,0,1-2.57.58,6.4,6.4,0,0,1-1.51-.1,7.11,7.11,0,0,1-3.8-2.2,10.68,10.68,0,0,1-2.92-6.26c0-.28,0-.54,0-.82,0-5.12,2.5-9.28,5.59-9.28a4,4,0,0,1,3,1.47,3.72,3.72,0,0,1,.8,1.52,6.91,6.91,0,0,1,0,1.76.78.78,0,0,0,.33.68,1,1,0,0,0,1.11,0c.57-.37.35-1.4.31-2a15,15,0,0,0-8-12.28,14.63,14.63,0,0,0-4.56-1.49c-9.27-1.41-17.18,8-14.71,16.77-7.28-1-13.3,6.36-12.6,13.55A14.94,14.94,0,0,0,159,143.08a1.37,1.37,0,0,0,.68-1,.87.87,0,0,0-1.43-.67c-.12.11-.23.25-.36.35a2.64,2.64,0,0,1-1.46.32,9.77,9.77,0,0,1-3-.39,6.55,6.55,0,0,1-3.24-1.72,4.19,4.19,0,0,1-1-3.54,6.35,6.35,0,0,1,3.2-4.42c4.55-2.66,9.75-.31,14.49.5a37,37,0,0,0,5.27.51c1.2,0,2.42,0,3.62,0,9.92-.53,26.3-5.09,26.3-17.57C202,106.28,193.51,100.71,180.86,99.91Zm-10.24-.48h-1.45V74.27h1.29c7.5,0,9.67,5.65,9.67,12.58C180.13,95.07,177.15,99.43,170.62,99.43Z"/></svg>