<svg id="Layer_1" data-name="Layer 1" xmlns="http://www.w3.org/2000/svg" viewBox="0 0 476.65 122.07"><defs><style>.cls-1{fill:#1d3461;}.cls-2{fill:#9aacf6;}</style></defs><path class="cls-1" d="M13.83,47.88h10.3v2.58H17v5h5.21V58H17v7h9.67L26,67.6H13.83Z"/><path class="cls-1" d="M34.22,50.21c-1.72,0-3.15.79-3.15,2.41,0,4,9.41,2.77,9.41,9.48,0,3.34-2.67,5.85-6.74,5.85a10.6,10.6,0,0,1-6.58-2.16l1.33-2.42a9.3,9.3,0,0,0,5.22,1.94c2.38,0,3.66-1.4,3.66-3.21,0-4.48-9.48-3.21-9.48-9.41,0-3.18,2.61-5.09,6.17-5.09a8.91,8.91,0,0,1,5.41,1.81l-.23,2.86A7.88,7.88,0,0,0,34.22,50.21Z"/><path class="cls-1" d="M50.09,67.6H47V50.46H41.76l.64-2.58H55v2.58h-4.9Z"/><path class="cls-1" d="M62.91,67.6h-5V47.88h5c8.5,0,11.93,4.43,11.93,9.86S71.41,67.6,62.91,67.6Zm.32-17.17H61V65h2.19c5.76,0,8.46-3.25,8.46-7.29S69,50.43,63.23,50.43Z"/><path class="cls-1" d="M77.2,67.8a1.87,1.87,0,0,1-2-1.88,1.83,1.83,0,0,1,2-1.85A1.87,1.87,0,0,1,79.3,66,1.9,1.9,0,0,1,77.2,67.8Z"/><path class="cls-1" d="M411.07,52.31l-.23-2.74a7.75,7.75,0,0,1,5.25-2c3.72,0,6,2.32,6,5.82s-2.32,6.87-6.36,11.58H423l-.67,2.6H410.53v-.38C419,58,419,55.17,419,53.58a3.05,3.05,0,0,0-3.28-3.28A7,7,0,0,0,411.07,52.31Z"/><path class="cls-1" d="M432.19,67.86c-4.55,0-7.32-3.69-7.32-10.15s2.77-10.11,7.32-10.11,7.35,3.69,7.35,10.14S436.74,67.86,432.19,67.86Zm0-17.62c-2.48,0-4.14,2.77-4.14,7.47s1.66,7.48,4.14,7.48,4.13-2.67,4.13-7.45S434.7,50.24,432.19,50.24Z"/><path class="cls-1" d="M444.6,51.41l-3.06,1.21-.38-2.73,6.11-2.23h.54V67.6H444.6Z"/><path class="cls-1" d="M452.55,67.35l6.39-16.89h-8.27l.64-2.58h11.51l-7.34,20Z"/><path class="cls-2" d="M210.49,84.49a16.69,16.69,0,0,1-4.59.64c-9.41,0-16.5-7.19-16.5-16.72A20.58,20.58,0,0,1,194.32,55a26.12,26.12,0,0,1,11.19-7.4c-1.66-13.29-3.19-25.53-3.18-25.53-.78-4.54,3-7.66,6.78-10.06l2.7-1.49v-.14s-16.83.12-22.45.12c-3.94,0-15.78-.12-15.78-.12l-13.34,48-.79,2.84s-.33-.47-.89-1.33a94.79,94.79,0,0,1-5.35-9.48,99,99,0,0,1-9-27.43,77.45,77.45,0,0,1-1.05-12.55s-12.24.11-16.32.11c-2.55,0-7.7,0-12.15-.06l-3,0a26.32,26.32,0,0,0-4.28.59c-10,2.18-20.86,10.09-20.86,22.8,0,6.21,4,10.11,9.23,10.11a12.63,12.63,0,0,0,7.74-3c1.46-1.17,4.57-4.2,4.39-6.26a2.4,2.4,0,0,0-1.78-2.08c-2.44-.6-2.53,2.53-4.44,2.59-2.12.08-2.11-4.19-2-5.63a17,17,0,0,1,2-6.54c1.9-3.59,5.42-7.67,9.85-7.67a3.77,3.77,0,0,1,1.55.35c4,1.92,2.79,7.6,2.33,11.06l-.58,4.32c-.24,1.76-.47,3.52-.71,5.28-.26,2-.54,4-.8,6s-.57,4.25-.86,6.37-.58,4.33-.86,6.49-.58,4.21-.85,6.32c0,.25-.07.48-.1.73L110,67.37l-.69,5.12c-.19,1.37-.37,2.74-.55,4.11-.12.93-.25,1.86-.38,2.79-.05.4-.1.79-.16,1.19v0c-1,7.69-4.06,10.22-8.61,10.22v1.82s9.36-.19,12.47-.19,15,.19,15,.19V90.83h-2.62c-5.28,0-8.79-3.11-8.66-8.54.17-7.63.88-22.77,1.56-36.15.44-8.62.87-16.51,1.13-21.17a67.85,67.85,0,0,0,1.6,9.39c.27,1.17.58,2.36.9,3.55a171.9,171.9,0,0,0,10.31,26.78,292.28,292.28,0,0,0,15.57,28.54h6.22L177,20.78l7.58,59.4c1,7.81-4,10.65-8.55,10.65h-1.4v1.82s18.63-.19,24.37-.19c4.89,0,20.53.19,20.53.19V90.83h-.94C214.79,90.83,211.94,88.85,210.49,84.49Z"/><path class="cls-2" d="M305.76,35c0-14.16-12.78-24.56-40.6-24.56,0,0-13.51.12-18,.12-4.74,0-19-.12-19-.12v.15c4.28,2.58,10.28,6.14,10.28,12.26V55.64s-7.75-2.88-10.13-3.6c-6.83-2-14.1-3.16-21-.87a22.38,22.38,0,0,0-10,6.43,16.54,16.54,0,0,0-4,10.81A12.31,12.31,0,0,0,205.9,81.16c7.69,0,13-7,13-11.1a1.15,1.15,0,0,0-1.21-1.21c-.77,0-1.54,1.1-3.3,1.1-2.86,0-4.62-1.65-4.62-4.84,0-3.86,3.36-6.23,6.68-7.36,7.41-2.53,14.31.16,21.42,2.35l.62.19V80.62c0,7.47-4.36,10.21-8.91,10.21h-.14v1.83h.14s15.38-.19,20.51-.19c5.56,0,23.46.19,23.46.19V90.83h-1.26c-4.52,0-8.87-3.7-8.91-10.08V61.54C290.49,61.31,305.76,51.87,305.76,35Zm-42.41,9.62V12.21h1.24c9.05,0,15.16,7.89,15.16,22.86,0,15.54-6.57,23.88-16.4,24Z"/><path class="cls-2" d="M397.93,51.58c0,25.15-15.83,40.23-41.76,42.9-1.51.15-3,.29-4.54.33a39.88,39.88,0,0,1-4.5-.22h0c-1.26-.12-2.52-.29-3.77-.5-6.9-1.18-14.47-4.61-21.09-.74a11,11,0,0,0-1.79,1.32,8.68,8.68,0,0,0-2.87,5.13,6.13,6.13,0,0,0,1.49,5.16,9.81,9.81,0,0,0,4.71,2.5,14.77,14.77,0,0,0,4.43.57,3.81,3.81,0,0,0,2.13-.48,6.32,6.32,0,0,0,.53-.51,1.26,1.26,0,0,1,2.07,1,2,2,0,0,1-1,1.46,21.74,21.74,0,0,1-34.5-15.37c-1-10.47,7.75-21.23,18.35-19.73a19,19,0,0,1,2.31-15.07C322,53,329.25,48.74,337.21,50a21,21,0,0,1,6.64,2.17l.08,0a21.92,21.92,0,0,1,8.85,8.67,22.34,22.34,0,0,1,2.26,6A21.91,21.91,0,0,1,355.5,70c.05.83.36,2.33-.46,2.87a1.49,1.49,0,0,1-1.63,0,1.18,1.18,0,0,1-.47-1,10,10,0,0,0,0-2.57,5.55,5.55,0,0,0-1.15-2.22,5.92,5.92,0,0,0-4.41-2.13,5.52,5.52,0,0,0-3.47,1.3c-2.76,2.15-4.66,6.81-4.66,12.21,0,.41,0,.8,0,1.2a15.59,15.59,0,0,0,4.25,9.11l.37.38A10.19,10.19,0,0,0,349.09,92c2.55.49,4.79-.39,7-1.68,9.23-5.49,14.87-19,14.87-38.57,0-25.7-8.69-39.44-24.07-39.44h-2.93V47.77A24.73,24.73,0,0,0,337.82,46a21.86,21.86,0,0,0-3.33-.25,23.13,23.13,0,0,0-16.39,7.11V23.6c0-6.75-6.16-10.47-10.44-13.07v-.14s14.44.13,19.26.13c5.55,0,22.18-.13,22.18-.13C380,10.39,397.93,24.82,397.93,51.58Z"/></svg>